<svg xmlns="http://www.w3.org/2000/svg" version="1.1" xmlns:xlink="http://www.w3.org/1999/xlink" xmlns:svgjs="http://svgjs.dev/svgjs" width="1000" height="123" viewBox="0 0 1000 123"><g transform="matrix(1,0,0,1,-0.6060606060606801,-0.5652038962307984)"><svg viewBox="0 0 396 49" data-background-color="#89939e" preserveAspectRatio="xMidYMid meet" height="123" width="1000" xmlns="http://www.w3.org/2000/svg" xmlns:xlink="http://www.w3.org/1999/xlink"><g id="tight-bounds" transform="matrix(1,0,0,1,0.24000000000003752,0.2251625277667415)"><svg viewBox="0 0 395.5199999999999 48.54967494446652" height="48.54967494446652" width="395.5199999999999"><g><svg viewBox="0 0 461.9034745367258 56.69817845994566" height="48.54967494446652" width="395.5199999999999"><g transform="matrix(1,0,0,1,0,7.836000062119844)"><svg viewBox="0 0 395.52000000000004 41.02617833570597" height="41.02617833570597" width="395.52000000000004"><g id="textblocktransform"><svg viewBox="0 0 395.52000000000004 41.02617833570597" height="41.02617833570597" width="395.52000000000004" id="textblock"><g><svg viewBox="0 0 395.52000000000004 41.02617833570597" height="41.02617833570597" width="395.52000000000004"><g transform="matrix(1,0,0,1,0,0)"><svg width="395.52000000000004" viewBox="3.1 -38.62 377.28 39.129999999999995" height="41.02617833570597" data-palette-color="#ffffff"><path d="M3.1-19.31L3.1-19.31Q3.1-23.39 4.64-26.92 6.18-30.44 9.09-33.04 12.01-35.64 16.22-37.13 20.43-38.62 25.76-38.62L25.76-38.62Q30.42-38.62 34.31-37.68 38.21-36.74 41.55-34.81L41.55-34.81 37.99-28.96Q36.99-29.61 35.68-30.13 34.38-30.64 32.9-30.99 31.42-31.35 29.85-31.54 28.27-31.74 26.73-31.74L26.73-31.74Q23.02-31.74 20.12-30.82 17.21-29.91 15.22-28.26 13.23-26.61 12.19-24.33 11.16-22.05 11.16-19.31L11.16-19.31Q11.16-16.48 12.23-14.11 13.31-11.74 15.34-10.02 17.38-8.3 20.32-7.34 23.27-6.37 26.98-6.37L26.98-6.37Q28.66-6.37 30.32-6.62 31.98-6.86 33.53-7.29 35.08-7.71 36.52-8.31 37.96-8.91 39.21-9.62L39.21-9.62 42.77-3.76Q39.65-1.76 35.55-0.62 31.45 0.51 26.83 0.51L26.83 0.51Q20.95 0.51 16.5-1.01 12.06-2.54 9.08-5.21 6.1-7.89 4.6-11.51 3.1-15.14 3.1-19.31ZM50.31 0L50.31-38.16 58.1-38.16 58.1 0 50.31 0ZM67.96 0L67.96-38.16 88.08-38.16Q92.48-38.16 95.7-37.21 98.92-36.25 101.04-34.46 103.17-32.67 104.21-30.08 105.24-27.49 105.24-24.24L105.24-24.24Q105.24-21.19 104.22-18.6 103.19-16.02 101.08-14.12 98.97-12.23 95.75-11.17 92.52-10.11 88.13-10.11L88.13-10.11 75.7-10.13 75.7 0 67.96 0ZM75.7-16.82L88.28-16.82Q90.47-16.82 92.12-17.35 93.77-17.87 94.88-18.84 95.99-19.8 96.54-21.18 97.09-22.56 97.09-24.24L97.09-24.24Q97.09-27.64 94.88-29.53 92.67-31.42 88.28-31.42L88.28-31.42 75.7-31.42 75.7-16.82ZM113.66 0L113.66-38.16 121.4-38.16 121.4-28.2 145.13-28.2 145.13-38.16 152.9-38.16 152.9 0 145.13 0 145.13-21.58 121.4-21.58 121.4 0 113.66 0ZM163.74 0L163.74-38.16 196.23-38.16 196.23-31.37 171.47-31.37 171.47-23.75 193.4-23.75 193.4-17.38 171.47-17.38 171.47-6.76 196.74-6.76 196.74 0 163.74 0ZM205.33 0L205.33-38.16 224.74-38.16Q229.14-38.16 232.36-37.24 235.58-36.33 237.71-34.59 239.83-32.86 240.87-30.37 241.91-27.88 241.91-24.73L241.91-24.73Q241.91-22.61 241.39-20.69 240.88-18.77 239.82-17.16 238.76-15.55 237.15-14.29 235.53-13.04 233.36-12.21L233.36-12.21 241.66 0 232.19 0 225.01-10.84 224.79-10.84 213.07-10.86 213.07 0 205.33 0ZM213.07-17.55L224.94-17.55Q227.14-17.55 228.78-18.07 230.43-18.58 231.54-19.51 232.65-20.43 233.2-21.77 233.75-23.1 233.75-24.73L233.75-24.73Q233.75-27.93 231.55-29.68 229.36-31.42 224.94-31.42L224.94-31.42 213.07-31.42 213.07-17.55ZM251.06 0L251.06-38.16 271.18-38.16Q275.57-38.16 278.79-37.21 282.02-36.25 284.14-34.46 286.26-32.67 287.3-30.08 288.34-27.49 288.34-24.24L288.34-24.24Q288.34-21.19 287.31-18.6 286.29-16.02 284.18-14.12 282.07-12.23 278.84-11.17 275.62-10.11 271.23-10.11L271.23-10.11 258.8-10.13 258.8 0 251.06 0ZM258.8-16.82L271.37-16.82Q273.57-16.82 275.22-17.35 276.86-17.87 277.98-18.84 279.09-19.8 279.64-21.18 280.19-22.56 280.19-24.24L280.19-24.24Q280.19-27.64 277.98-29.53 275.77-31.42 271.37-31.42L271.37-31.42 258.8-31.42 258.8-16.82ZM291.88 0L309.8-38.16 318-38.16 336.46 0 328.33 0 325.28-6.42 302.99-6.42 300.03 0 291.88 0ZM305.94-12.79L322.22-12.79 313.97-30.13 305.94-12.79ZM342.39 0L342.39-38.16 356.38-38.16Q362.5-38.16 367.02-36.84 371.54-35.52 374.5-33.07 377.47-30.62 378.92-27.11 380.38-23.61 380.38-19.24L380.38-19.24Q380.38-15.09 378.94-11.56 377.49-8.03 374.54-5.46 371.59-2.88 367.07-1.43 362.55 0.02 356.43 0.02L356.43 0.02 342.39 0ZM350.13-6.69L358.28-6.69Q361.75-6.69 364.36-7.58 366.97-8.47 368.72-10.11 370.46-11.74 371.34-14.06 372.22-16.38 372.22-19.24L372.22-19.24Q372.22-22.05 371.34-24.3 370.46-26.56 368.72-28.14 366.97-29.71 364.36-30.57 361.75-31.42 358.28-31.42L358.28-31.42 350.13-31.42 350.13-6.69Z" opacity="1" transform="matrix(1,0,0,1,0,0)" fill="#ffffff" class="undefined-text-0" data-fill-palette-color="primary" id="text-0"></path></svg></g></svg></g></svg></g></svg></g><g transform="matrix(1,0,0,1,405.20529607678014,0)"><svg viewBox="0 0 56.69817845994566 56.69817845994566" height="56.69817845994566" width="56.69817845994566"><g data-palette-color="#ffffff"><rect width="15.497502112385147" height="56.69817845994566" fill="#ffffff" stroke="transparent" data-fill-palette-color="accent" x="0" fill-opacity="1"></rect><rect width="15.497502112385147" height="56.69817845994566" fill="#ffffff" stroke="transparent" data-fill-palette-color="accent" x="18.899392819981887" fill-opacity="0.75"></rect><rect width="15.497502112385147" height="56.69817845994566" fill="#ffffff" stroke="transparent" data-fill-palette-color="accent" x="37.798785639963775" fill-opacity="0.5"></rect></g></svg></g></svg></g><defs></defs></svg><rect width="395.5199999999999" height="48.54967494446652" fill="none" stroke="none" visibility="hidden"></rect></g></svg></g></svg>