<svg xmlns="http://www.w3.org/2000/svg" version="1.1" xmlns:xlink="http://www.w3.org/1999/xlink" xmlns:svgjs="http://svgjs.dev/svgjs" width="1000" height="116" viewBox="0 0 1000 116"><g transform="matrix(1,0,0,1,-0.6060606060606233,-0.08104285081858364)"><svg viewBox="0 0 396 46" data-background-color="#89939e" preserveAspectRatio="xMidYMid meet" height="116" width="1000" xmlns="http://www.w3.org/2000/svg" xmlns:xlink="http://www.w3.org/1999/xlink"><g id="tight-bounds" transform="matrix(1,0,0,1,0.2400000000000091,0.03213768222116187)"><svg viewBox="0 0 395.52 45.9357246355577" height="45.9357246355577" width="395.52"><g><svg viewBox="0 0 457.766842757755 53.1650779637158" height="45.9357246355577" width="395.52"><g transform="matrix(1,0,0,1,0,7.347706144044661)"><svg viewBox="0 0 395.52 38.46966567562648" height="38.46966567562648" width="395.52"><g id="textblocktransform"><svg viewBox="0 0 395.52 38.46966567562648" height="38.46966567562648" width="395.52" id="textblock"><g><svg viewBox="0 0 395.52 38.46966567562648" height="38.46966567562648" width="395.52"><g transform="matrix(1,0,0,1,0,0)"><svg width="395.52" viewBox="3.1 -38.62 402.34999999999997 39.129999999999995" height="38.46966567562648" data-palette-color="#ffffff"><path d="M3.1-19.31L3.1-19.31Q3.1-23.39 4.64-26.92 6.18-30.44 9.09-33.04 12.01-35.64 16.22-37.13 20.43-38.62 25.76-38.62L25.76-38.62Q30.42-38.62 34.31-37.68 38.21-36.74 41.55-34.81L41.55-34.81 37.99-28.96Q36.99-29.61 35.68-30.13 34.38-30.64 32.9-30.99 31.42-31.35 29.85-31.54 28.27-31.74 26.73-31.74L26.73-31.74Q23.02-31.74 20.12-30.82 17.21-29.91 15.22-28.26 13.23-26.61 12.19-24.33 11.16-22.05 11.16-19.31L11.16-19.31Q11.16-16.48 12.23-14.11 13.31-11.74 15.34-10.02 17.38-8.3 20.32-7.34 23.27-6.37 26.98-6.37L26.98-6.37Q28.66-6.37 30.32-6.62 31.98-6.86 33.53-7.29 35.08-7.71 36.52-8.31 37.96-8.91 39.21-9.62L39.21-9.62 42.77-3.76Q39.65-1.76 35.55-0.62 31.45 0.51 26.83 0.51L26.83 0.51Q20.95 0.51 16.5-1.01 12.06-2.54 9.08-5.21 6.1-7.89 4.6-11.51 3.1-15.14 3.1-19.31ZM62.99 0L62.99-9.45 46.31-38.16 55.08-38.16 66.82-16.46 78.42-38.16 87.18-38.16 70.73-9.5 70.73 0 62.99 0ZM93.04 0L93.04-38.16 113.15-38.16Q117.55-38.16 120.77-37.21 123.99-36.25 126.12-34.46 128.24-32.67 129.28-30.08 130.32-27.49 130.32-24.24L130.32-24.24Q130.32-21.19 129.29-18.6 128.27-16.02 126.15-14.12 124.04-12.23 120.82-11.17 117.6-10.11 113.2-10.11L113.2-10.11 100.78-10.13 100.78 0 93.04 0ZM100.78-16.82L113.35-16.82Q115.55-16.82 117.19-17.35 118.84-17.87 119.95-18.84 121.06-19.8 121.61-21.18 122.16-22.56 122.16-24.24L122.16-24.24Q122.16-27.64 119.95-29.53 117.74-31.42 113.35-31.42L113.35-31.42 100.78-31.42 100.78-16.82ZM138.74 0L138.74-38.16 146.48-38.16 146.48-28.2 170.21-28.2 170.21-38.16 177.97-38.16 177.97 0 170.21 0 170.21-21.58 146.48-21.58 146.48 0 138.74 0ZM188.81 0L188.81-38.16 221.3-38.16 221.3-31.37 196.55-31.37 196.55-23.75 218.47-23.75 218.47-17.38 196.55-17.38 196.55-6.76 221.82-6.76 221.82 0 188.81 0ZM230.41 0L230.41-38.16 249.82-38.16Q254.21-38.16 257.43-37.24 260.66-36.33 262.78-34.59 264.9-32.86 265.94-30.37 266.98-27.88 266.98-24.73L266.98-24.73Q266.98-22.61 266.47-20.69 265.95-18.77 264.89-17.16 263.83-15.55 262.22-14.29 260.61-13.04 258.43-12.21L258.43-12.21 266.74 0 257.26 0 250.09-10.84 249.87-10.84 238.15-10.86 238.15 0 230.41 0ZM238.15-17.55L250.01-17.55Q252.21-17.55 253.86-18.07 255.51-18.58 256.62-19.51 257.73-20.43 258.28-21.77 258.83-23.1 258.83-24.73L258.83-24.73Q258.83-27.93 256.63-29.68 254.43-31.42 250.01-31.42L250.01-31.42 238.15-31.42 238.15-17.55ZM276.13 0L276.13-38.16 296.25-38.16Q300.64-38.16 303.87-37.21 307.09-36.25 309.21-34.46 311.34-32.67 312.38-30.08 313.41-27.49 313.41-24.24L313.41-24.24Q313.41-21.19 312.39-18.6 311.36-16.02 309.25-14.12 307.14-12.23 303.92-11.17 300.69-10.11 296.3-10.11L296.3-10.11 283.87-10.13 283.87 0 276.13 0ZM283.87-16.82L296.44-16.82Q298.64-16.82 300.29-17.35 301.94-17.87 303.05-18.84 304.16-19.8 304.71-21.18 305.26-22.56 305.26-24.24L305.26-24.24Q305.26-27.64 303.05-29.53 300.84-31.42 296.44-31.42L296.44-31.42 283.87-31.42 283.87-16.82ZM316.95 0L334.87-38.16 343.07-38.16 361.53 0 353.4 0 350.35-6.42 328.06-6.42 325.1 0 316.95 0ZM331.01-12.79L347.3-12.79 339.05-30.13 331.01-12.79ZM367.46 0L367.46-38.16 381.45-38.16Q387.58-38.16 392.09-36.84 396.61-35.52 399.58-33.07 402.54-30.62 404-27.11 405.45-23.61 405.45-19.24L405.45-19.24Q405.45-15.09 404.01-11.56 402.57-8.03 399.61-5.46 396.66-2.88 392.14-1.43 387.63 0.02 381.5 0.02L381.5 0.02 367.46 0ZM375.2-6.69L383.35-6.69Q386.82-6.69 389.43-7.58 392.05-8.47 393.79-10.11 395.54-11.74 396.42-14.06 397.29-16.38 397.29-19.24L397.29-19.24Q397.29-22.05 396.42-24.3 395.54-26.56 393.79-28.14 392.05-29.71 389.43-30.57 386.82-31.42 383.35-31.42L383.35-31.42 375.2-31.42 375.2-6.69Z" opacity="1" transform="matrix(1,0,0,1,0,0)" fill="#ffffff" class="undefined-text-0" data-fill-palette-color="primary" id="text-0"></path></svg></g></svg></g></svg></g></svg></g><g transform="matrix(1,0,0,1,404.6017647940392,0)"><svg viewBox="0 0 53.1650779637158 53.1650779637158" height="53.1650779637158" width="53.1650779637158"><g data-palette-color="#ffffff"><rect width="14.531787976748987" height="53.1650779637158" fill="#ffffff" stroke="transparent" data-fill-palette-color="accent" x="0" fill-opacity="1"></rect><rect width="14.531787976748987" height="53.1650779637158" fill="#ffffff" stroke="transparent" data-fill-palette-color="accent" x="17.721692654571935" fill-opacity="0.75"></rect><rect width="14.531787976748987" height="53.1650779637158" fill="#ffffff" stroke="transparent" data-fill-palette-color="accent" x="35.44338530914387" fill-opacity="0.5"></rect></g></svg></g></svg></g><defs></defs></svg><rect width="395.52" height="45.9357246355577" fill="none" stroke="none" visibility="hidden"></rect></g></svg></g></svg>